# xmcd CD database file generated by Grip 3.3.1
# 
# Track frame offsets:
#       150
#       19495
#       32950
#       46176
#       61565
#       75374
#       89241
#       102952
#       116630
#       132722
#       146991
#       163516
#       176165
#       189801
#       204427
#       216934
#       229677
#       243605
#       257565
#       270620
#       282944
#       294601
#       308892
#       323206
# 
# Disc length: 4487 seconds
# 
# Revision: 5
# Processed by: cddbd v1.5.2PL0 Copyright (c) Steve Scherf et al.
# Submitted via: Grip 3.3.1
# 
DISCID=6a118518
DTITLE=Various Artist - Bluegrass Bonanza String Band Roots 1927-1938
DYEAR=1927
DGENRE=Rock
TTITLE0=Ernest V Stoneman and His Dixie Mountaineers - Hop Light Ladies
TTITLE1=Earl Johnsons Clodhoppers - Ain't Nobody's Business
TTITLE2=Uncle Dave Macon - Carve That Possum
TTITLE3=Ernest V Stoneman and His Dixie Mountaineers - Unlucky Road To Wash
TTITLE3=ington
TTITLE4=Uncle Dave Macon - Hold The Woodpile Down
TTITLE5=Uncle Dave Macon - Go Along Mule
TTITLE6=Earl Johnsons Clodhoppers - I Get My Whiskey From Rockingham
TTITLE7=Earl Johnsons Clodhoppers - Red Hot Breakdown
TTITLE8=Ernest V Stoneman and His Dixie Mountaineers - Carless Love
TTITLE9=Uncle Dave Macon - Buddy Won't You Roll Down The Line
TTITLE10=Ernest V Stoneman and His Dixie Mountaineers - Sally Goodin
TTITLE11=Uncle Dave Macon - Susie Lee
TTITLE12=Hack String Band - Western Kentucky Limited
TTITLE13=Hayes Shepherd - Hard To Love
TTITLE14=The Prairie Ramblers - Shady Grove
TTITLE15=Gid Tanner and His Skillet Lickers - Hawkins Rag
TTITLE16=Uncle Dave Macon - When The Train Comes Along
TTITLE17=Gid Tanner and His Skillet Lickers - Tanner's Boarding House
TTITLE18=Gid Tanner and His Skillet Lickers - On Tanner's Farm
TTITLE19=The Blue Sky Boys - Are You From Dixie
TTITLE20=The East Texas Serenaders - East Texas Drag
TTITLE21=Charlie Poole - If The River Was Whiskey
TTITLE22=Mississippi Mud Steppers - Jackson Stomp
TTITLE23=Buster Carter and Preston Young - I'll Roll In My Sweet Baby's Arms
EXTD=ID3G:  17 YEAR: 1927
EXTT0=Ernest V. Stoneman and His Dixie Mountaineers
EXTT1=Earl Johnson and His Clodhoppers
EXTT2=Uncle Dave Macon
EXTT3=Ernest V. Stoneman and His Dixie Mountaineers
EXTT4=Uncle Dave Macon
EXTT5=Uncle Dave Macon
EXTT6=Earl Johnson and His Clodhoppers
EXTT7=Earl Johnson and His Clodhoppers
EXTT8=Ernest V. Stoneman and His Dixie Mountaineers
EXTT9=Uncle Dave Macon
EXTT10=Ernest V. Stoneman and His Dixie Mountaineers
EXTT11=Uncle Dave Macon
EXTT12=Hack String Band
EXTT13=Appalachia Vagabond (Hayes Shepherd)
EXTT14=Prarie Ramblers
EXTT15=Gid Tanner and His Skillet Lickers
EXTT16=Uncle Dave Macon
EXTT17=Gid Tanner and Riley Puckett
EXTT18=Gid Tanner and Riley Puckett
EXTT19=Blue Sky Boys
EXTT20=East Texas Seranaders
EXTT21=Charlie Poole and His North Carolina Ramblers
EXTT22=Mississippi Mud Steppers
EXTT23=Buster Carter and Preston Young
PLAYORDER=
